<svg id="Layer_1" data-name="Layer 1" xmlns="http://www.w3.org/2000/svg" viewBox="0 0 100 100"><defs><style>.cls-1{fill:#33373a;}</style></defs><title>cpu</title><g id="Group"><circle id="Oval" class="cls-1" cx="8.33" cy="8.33" r="1.67"/><circle id="Oval-2" data-name="Oval" class="cls-1" cx="91.67" cy="8.33" r="1.67"/><circle id="Oval-3" data-name="Oval" class="cls-1" cx="8.33" cy="91.67" r="1.67"/><circle id="Oval-4" data-name="Oval" class="cls-1" cx="18.33" cy="93.33" r="1.67"/><circle id="Oval-5" data-name="Oval" class="cls-1" cx="25" cy="93.33" r="1.67"/><circle id="Oval-6" data-name="Oval" class="cls-1" cx="31.67" cy="93.33" r="1.67"/><circle id="Oval-7" data-name="Oval" class="cls-1" cx="38.33" cy="93.33" r="1.67"/><circle id="Oval-8" data-name="Oval" class="cls-1" cx="63.33" cy="65" r="1.67"/><circle id="Oval-9" data-name="Oval" class="cls-1" cx="56.67" cy="65" r="1.67"/><circle id="Oval-10" data-name="Oval" class="cls-1" cx="60" cy="60" r="1.67"/><circle id="Oval-11" data-name="Oval" class="cls-1" cx="50" cy="65" r="1.67"/><circle id="Oval-12" data-name="Oval" class="cls-1" cx="43.33" cy="65" r="1.67"/><circle id="Oval-13" data-name="Oval" class="cls-1" cx="53.33" cy="60" r="1.67"/><circle id="Oval-14" data-name="Oval" class="cls-1" cx="46.67" cy="60" r="1.67"/><circle id="Oval-15" data-name="Oval" class="cls-1" cx="36.67" cy="65" r="1.67"/><circle id="Oval-16" data-name="Oval" class="cls-1" cx="40" cy="60" r="1.67"/><circle id="Oval-17" data-name="Oval" class="cls-1" cx="63.33" cy="55" r="1.67"/><circle id="Oval-18" data-name="Oval" class="cls-1" cx="56.67" cy="55" r="1.67"/><circle id="Oval-19" data-name="Oval" class="cls-1" cx="60" cy="50" r="1.67"/><circle id="Oval-20" data-name="Oval" class="cls-1" cx="50" cy="55" r="1.67"/><circle id="Oval-21" data-name="Oval" class="cls-1" cx="43.33" cy="55" r="1.67"/><circle id="Oval-22" data-name="Oval" class="cls-1" cx="53.33" cy="50" r="1.67"/><circle id="Oval-23" data-name="Oval" class="cls-1" cx="46.67" cy="50" r="1.67"/><circle id="Oval-24" data-name="Oval" class="cls-1" cx="36.67" cy="55" r="1.67"/><circle id="Oval-25" data-name="Oval" class="cls-1" cx="40" cy="50" r="1.67"/><circle id="Oval-26" data-name="Oval" class="cls-1" cx="63.33" cy="45" r="1.67"/><circle id="Oval-27" data-name="Oval" class="cls-1" cx="56.67" cy="45" r="1.67"/><circle id="Oval-28" data-name="Oval" class="cls-1" cx="60" cy="40" r="1.67"/><circle id="Oval-29" data-name="Oval" class="cls-1" cx="50" cy="45" r="1.67"/><circle id="Oval-30" data-name="Oval" class="cls-1" cx="43.33" cy="45" r="1.67"/><circle id="Oval-31" data-name="Oval" class="cls-1" cx="53.33" cy="40" r="1.67"/><circle id="Oval-32" data-name="Oval" class="cls-1" cx="46.67" cy="40" r="1.67"/><circle id="Oval-33" data-name="Oval" class="cls-1" cx="36.67" cy="45" r="1.67"/><circle id="Oval-34" data-name="Oval" class="cls-1" cx="40" cy="40" r="1.67"/><circle id="Oval-35" data-name="Oval" class="cls-1" cx="63.33" cy="35" r="1.67"/><circle id="Oval-36" data-name="Oval" class="cls-1" cx="56.67" cy="35" r="1.67"/><circle id="Oval-37" data-name="Oval" class="cls-1" cx="50" cy="35" r="1.67"/><circle id="Oval-38" data-name="Oval" class="cls-1" cx="43.33" cy="35" r="1.67"/><circle id="Oval-39" data-name="Oval" class="cls-1" cx="36.67" cy="35" r="1.67"/><circle id="Oval-40" data-name="Oval" class="cls-1" cx="91.67" cy="91.67" r="1.67"/><path id="Shape" class="cls-1" d="M85,41.67a1.67,1.67,0,0,0,0-3.33H81.67V35H75V32.26A7.27,7.27,0,0,0,67.74,25H65V18.33H61.67V15a1.67,1.67,0,0,0-3.33,0v3.33H55V15a1.67,1.67,0,1,0-3.33,0v3.33H48.33V15A1.67,1.67,0,1,0,45,15v3.33H41.67V15a1.67,1.67,0,0,0-3.33,0v3.33H35V25H32.26A7.27,7.27,0,0,0,25,32.26V35H18.33v3.33H15a1.67,1.67,0,0,0,0,3.33h3.33V45H15a1.67,1.67,0,1,0,0,3.33h3.33v3.33H15A1.67,1.67,0,1,0,15,55h3.33v3.33H15a1.67,1.67,0,0,0,0,3.33h3.33V65H25v2.74A7.27,7.27,0,0,0,32.26,75H35v6.67h3.33V85a1.67,1.67,0,0,0,3.33,0V81.67H45V85a1.67,1.67,0,0,0,3.33,0V81.67h3.33V85A1.67,1.67,0,0,0,55,85V81.67h3.33V85a1.67,1.67,0,0,0,3.33,0V81.67H65V75h2.74A7.27,7.27,0,0,0,75,67.74V65h6.67V61.67H85a1.67,1.67,0,0,0,0-3.33H81.67V55H85a1.67,1.67,0,0,0,0-3.33H81.67V48.33H85A1.67,1.67,0,0,0,85,45H81.67V41.67Zm-60,20H21.67V38.33H25Zm13.33-40H61.67V25H38.33ZM61.67,78.33H38.33V75H61.67ZM71.67,35V67.74a3.93,3.93,0,0,1-3.93,3.93H32.26a3.93,3.93,0,0,1-3.93-3.93V32.26a3.93,3.93,0,0,1,3.93-3.93H67.74a3.93,3.93,0,0,1,3.93,3.93Zm6.67,26.67H75V38.33h3.33Z"/><circle id="Oval-41" data-name="Oval" class="cls-1" cx="6.67" cy="61.67" r="1.67"/><circle id="Oval-42" data-name="Oval" class="cls-1" cx="6.67" cy="68.33" r="1.67"/><circle id="Oval-43" data-name="Oval" class="cls-1" cx="6.67" cy="75" r="1.67"/><circle id="Oval-44" data-name="Oval" class="cls-1" cx="6.67" cy="81.67" r="1.67"/><path id="Shape-2" data-name="Shape" class="cls-1" d="M90.83,0H76.67V1.67a5,5,0,0,1-10,0V0H9.16A9.18,9.18,0,0,0,0,9.16V20H6.67v3.33H0v67.5A9.18,9.18,0,0,0,9.16,100h57.5V98.33a5,5,0,0,1,10,0V100H90.83A9.18,9.18,0,0,0,100,90.83V9.16A9.18,9.18,0,0,0,90.83,0Zm5.83,28.33H93.33a1.67,1.67,0,1,0,0,3.33h3.33v1.67H93.33a1.67,1.67,0,1,0,0,3.33h3.33v1.67H93.33a1.67,1.67,0,1,0,0,3.33h3.33v1.67H93.33a1.67,1.67,0,1,0,0,3.33h3.33v1.67H93.33a1.67,1.67,0,1,0,0,3.33h3.33v1.67H93.33a1.67,1.67,0,1,0,0,3.33h3.33v1.67H93.33a1.67,1.67,0,1,0,0,3.33h3.33v1.67H93.33a1.67,1.67,0,1,0,0,3.33h3.33v1.67H93.33a1.67,1.67,0,1,0,0,3.33h3.33V90.83a5.84,5.84,0,0,1-5.83,5.83h-11a8.33,8.33,0,0,0-16.33,0H9.16a5.84,5.84,0,0,1-5.83-5.83V26.67H10v-10H3.33V9.16A5.84,5.84,0,0,1,9.16,3.33H63.5a8.33,8.33,0,0,0,16.33,0h11a5.84,5.84,0,0,1,5.83,5.83Z"/></g></svg>