<svg id="Layer_1" data-name="Layer 1" xmlns="http://www.w3.org/2000/svg" viewBox="0 0 108 108"><defs><style>.cls-1{fill:#33373b;}</style></defs><title>memory_dpl</title><g id="Group"><path id="Shape" class="cls-1" d="M75.6,9H51V19.92H75.6ZM53.45,17.5V11.43H73.18v6.06H53.45Z"/><path id="Shape-2" class="cls-1" d="M75.6,24.21H51V35.15H75.6Zm-22.15,8.5V26.65H73.18v6.06Z"/><path id="Shape-3" class="cls-1" d="M75.6,38.74H51V49.67H75.6Zm-22.15,8.5V41.17H73.18v6.06Z"/><path id="Shape-4" class="cls-1" d="M75.6,58.92H51v11H75.6Zm-22.15,8.5V61.36H73.18v6.06Z"/><path id="Shape-5" class="cls-1" d="M75.6,74.15H51V85.09H75.6Zm-22.15,8.5V76.59H73.18v6.07Z"/><path id="Shape-6" class="cls-1" d="M75.6,88.68H51V99.61H75.6Zm-22.15,8.5V91.12H73.18v6.06Z"/><path id="Shape-7" class="cls-1" d="M96.54,48.67h1.21V9h-12V0H46.65l.16,1.58a3.14,3.14,0,0,1-3.12,3.15l-1.45-.1v99.08l1.28-.07h.15a3.14,3.14,0,0,1,3.12,3.15V108h39v-6.26h12V59.33H96.54a5.33,5.33,0,1,1,0-10.67Zm-51.87,52.6V7.09a5.55,5.55,0,0,0,4.5-4.65H83.38V105.56H49.1A5.54,5.54,0,0,0,44.67,101.27ZM88.82,54a7.72,7.72,0,0,0,6.51,7.67V99.3H85.8V92.18h7V89.74h-7V87h7V84.6h-7V82h7V79.55h-7V77.21h7V74.77h-7v-2.7h7V69.63h-7V67h7V64.59h-7v-20h7V42.18h-7v-2.7h7V37h-7V34.44h7V32h-7V29.66h7V27.22h-7V24.53h7V22.08h-7v-2.6h7V17h-7V11.43h9.53V46.32A7.73,7.73,0,0,0,88.82,54Z"/></g></svg>