<svg id="Layer_1" data-name="Layer 1" xmlns="http://www.w3.org/2000/svg" xmlns:xlink="http://www.w3.org/1999/xlink" viewBox="0 0 18 17"><defs><style>.cls-1{fill:url(#linear-gradient);}.cls-2{fill:url(#linear-gradient-2);}</style><linearGradient id="linear-gradient" x1="-231.48" y1="234.63" x2="-231.48" y2="233.63" gradientTransform="matrix(17.55, 0, 0, -8.13, 4071.54, 1908.35)" gradientUnits="userSpaceOnUse"><stop offset="0" stop-color="#26e089"/><stop offset="1" stop-color="#26cce0"/></linearGradient><linearGradient id="linear-gradient-2" x1="-231.48" y1="234.63" x2="-231.48" y2="233.63" gradientTransform="matrix(17.55, 0, 0, -8.13, 4071.3, 1916.84)" xlink:href="#linear-gradient"/></defs><g id="Group"><path id="Shape" class="cls-1" d="M.59,8.22a.35.35,0,0,0,.35-.35A3.86,3.86,0,0,1,4.74,4h8.31V7.14l4.74-3.53L13.05.08V3.26H4.74a4.56,4.56,0,0,0-4.5,4.6A.35.35,0,0,0,.59,8.22Z"/><path id="Shape-2" data-name="Shape" class="cls-2" d="M17.2,8.57a.35.35,0,0,0-.35.35,3.86,3.86,0,0,1-3.81,3.9H4.74V9.65L0,13.18,4.74,16.7V13.53h8.31a4.56,4.56,0,0,0,4.5-4.6A.35.35,0,0,0,17.2,8.57Z"/></g></svg>