<svg id="Layer_1" data-name="Layer 1" xmlns="http://www.w3.org/2000/svg" viewBox="0 0 10 10"><defs><style>.cls-1{fill:#fff;}</style></defs><title>Artboard 1</title><g id="Capa_1" data-name="Capa 1"><path id="Shape" class="cls-1" d="M6.55,5,9.94,1.61a.21.21,0,0,0,0-.29L8.69.06a.21.21,0,0,0-.29,0L5,3.45,1.61.06a.21.21,0,0,0-.29,0L.06,1.31a.21.21,0,0,0,0,.29L3.45,5,.06,8.39a.21.21,0,0,0,0,.29L1.31,9.94a.21.21,0,0,0,.29,0L5,6.55,8.39,9.94a.21.21,0,0,0,.29,0L9.94,8.69a.21.21,0,0,0,0-.29Z"/></g></svg>