<?xml version="1.0" encoding="UTF-8"?>
<svg width="10px" height="10px" viewBox="0 0 10 10" version="1.1" xmlns="http://www.w3.org/2000/svg" xmlns:xlink="http://www.w3.org/1999/xlink">
    <!-- Generator: Sketch 42 (36781) - http://www.bohemiancoding.com/sketch -->
    <title>Shape</title>
    <desc>Created with Sketch.</desc>
    <defs></defs>
    <g id="Page-1" stroke="none" stroke-width="1" fill="none" fill-rule="evenodd">
        <g id="Artboard-Copy-2" transform="translate(-328.000000, -12.000000)" fill-rule="nonzero" fill="#FFFFFF">
            <g id="cross-remove-sign" transform="translate(328.000000, 12.000000)">
                <g id="Capa_1">
                    <path d="M6.5477785,5.00005212 L9.93884039,1.60893901 C10.0202476,1.52753312 10.0202476,1.39557427 9.93884039,1.31416838 L8.6860456,0.0610804782 C8.64695765,0.0219931415 8.59379805,0 8.53865798,0 C8.48341368,0 8.43035831,0.0219931415 8.39127036,0.0610804782 L5,3.45229781 L1.60872964,0.0610804782 C1.53055375,-0.0170941953 1.39213029,-0.0170941953 1.3139544,0.0610804782 L0.0610553746,1.31416838 C-0.0203517915,1.39557427 -0.0203517915,1.52753312 0.0610553746,1.60893901 L3.4522215,5.00005212 L0.0610553746,8.39116522 C-0.0203517915,8.47257111 -0.0203517915,8.60452996 0.0610553746,8.68593586 L1.3139544,9.93891952 C1.35304235,9.97800686 1.40609772,10 1.46134202,10 C1.51658632,10 1.56964169,9.97800686 1.60872964,9.93891952 L5,6.54770219 L8.39127036,9.93891952 C8.43035831,9.97800686 8.48341368,10 8.53865798,10 C8.59379805,10 8.64695765,9.97800686 8.6860456,9.93891952 L9.93894463,8.68593586 C10.0203518,8.60452996 10.0203518,8.47246688 9.93894463,8.39116522 L6.5477785,5.00005212 Z" id="Shape"></path>
                </g>
            </g>
        </g>
    </g>
</svg>