<?xml version="1.0" encoding="UTF-8"?>
<svg width="56px" height="108px" viewBox="0 0 56 108" version="1.1" xmlns="http://www.w3.org/2000/svg" xmlns:xlink="http://www.w3.org/1999/xlink">
    <!-- Generator: Sketch 42 (36781) - http://www.bohemiancoding.com/sketch -->
    <title>memory-chip (1)</title>
    <desc>Created with Sketch.</desc>
    <defs></defs>
    <g id="Page-1" stroke="none" stroke-width="1" fill="none" fill-rule="evenodd">
        <g id="Artboard-Copy-5" transform="translate(-241.000000, -264.000000)" fill-rule="nonzero" fill="#33373B">
            <g id="server" transform="translate(190.000000, 35.000000)">
                <g id="Group-8" transform="translate(0.000000, 45.000000)">
                    <g id="Group-2" transform="translate(33.000000, 169.000000)">
                        <g id="Path-2" transform="translate(0.000000, 15.000000)">
                            <g id="memory-chip-(1)" transform="translate(18.000000, 0.000000)">
                                <g id="Capa_1">
                                    <g id="Group">
                                        <path d="M33.6026667,8.98226866 L9.032,8.98226866 L9.032,19.9219701 L33.6032,19.9219701 L33.6032,8.98226866 L33.6026667,8.98226866 Z M11.4522667,17.4852537 L11.4522667,11.4265075 L31.1770667,11.4265075 L31.1770667,17.485791 L11.4522667,17.485791 L11.4522667,17.4852537 Z" id="Shape"></path>
                                        <path d="M33.6026667,24.2118806 L9.032,24.2118806 L9.032,35.1515821 L33.6032,35.1515821 L33.6032,24.2118806 L33.6026667,24.2118806 Z M11.4522667,32.7132537 L11.4522667,26.6523582 L31.1770667,26.6523582 L31.1770667,32.713791 L11.4522667,32.713791 L11.4522667,32.7132537 Z" id="Shape"></path>
                                        <path d="M33.6026667,38.736 L9.032,38.736 L9.032,49.6719403 L33.6032,49.6719403 L33.6032,38.736 L33.6026667,38.736 Z M11.4522667,47.2336119 L11.4522667,41.1743284 L31.1770667,41.1743284 L31.1770667,47.2336119 L11.4522667,47.2336119 Z" id="Shape"></path>
                                        <path d="M33.6026667,58.923403 L9.032,58.923403 L9.032,69.8652537 L33.6032,69.8652537 L33.6032,58.923403 L33.6026667,58.923403 Z M11.4522667,67.4247761 L11.4522667,61.3633433 L31.1770667,61.3633433 L31.1770667,67.4247761 L11.4522667,67.4247761 Z" id="Shape"></path>
                                        <path d="M33.6026667,74.1535522 L9.032,74.1535522 L9.032,85.0916418 L33.6032,85.0916418 L33.6032,74.1535522 L33.6026667,74.1535522 Z M11.4522667,82.6565373 L11.4522667,76.5897313 L31.1770667,76.5897313 L31.1770667,82.6565373 L11.4522667,82.6565373 Z" id="Shape"></path>
                                        <path d="M33.6026667,88.6755224 L9.032,88.6755224 L9.032,99.6136119 L33.6032,99.6136119 L33.6032,88.6755224 L33.6026667,88.6755224 Z M11.4522667,97.1768955 L11.4522667,91.1154627 L31.1770667,91.1154627 L31.1770667,97.1768955 L11.4522667,97.1768955 Z" id="Shape"></path>
                                        <path d="M54.5376,48.6666269 L55.7498667,48.6666269 L55.7498667,8.98226866 L43.7957333,8.98226866 L43.7957333,0 L4.65493333,0 L4.8112,1.58077612 C4.8112,3.31898507 3.40426667,4.72889552 1.6944,4.73050746 L0.247466667,4.63432836 L0.247466667,103.713313 L1.53226667,103.644 C1.6048,103.644 1.6752,103.634328 1.68693333,103.628418 C3.41066667,103.628418 4.81173333,105.036179 4.81173333,106.774388 L4.81173333,107.997313 L43.7952,107.997313 L43.7952,101.738149 L55.7493333,101.738149 L55.7493333,59.3328358 L54.5370667,59.3328358 C51.6208,59.3328358 49.2442667,56.934806 49.2442667,53.9983881 C49.2448,51.056597 51.6213333,48.6666269 54.5376,48.6666269 Z M2.672,101.272836 L2.672,7.08608955 C5.01013333,6.66698507 6.81013333,4.80143284 7.16906667,2.43832836 L41.3754667,2.43832836 L41.3754667,105.557373 L7.1024,105.551463 C6.61706667,103.351701 4.8768,101.668836 2.672,101.272836 Z M46.8186667,53.9989254 C46.8186667,57.8659701 49.5861333,61.0871642 53.3253333,61.6733731 L53.3253333,99.2960597 L43.7952,99.2960597 L43.7952,92.177194 L50.8266667,92.177194 L50.8266667,89.7367164 L43.7952,89.7367164 L43.7952,87.0388657 L50.8266667,87.0388657 L50.8266667,84.6042985 L43.7952,84.6042985 L43.7952,81.9929552 L50.8266667,81.9929552 L50.8266667,79.5508657 L43.7952,79.5508657 L43.7952,77.2124776 L50.8266667,77.2124776 L50.8266667,74.7703881 L43.7952,74.7703881 L43.7952,72.0741493 L50.8266667,72.0741493 L50.8266667,69.6320597 L43.7952,69.6320597 L43.7952,67.0266269 L50.8266667,67.0266269 L50.8266667,64.5861493 L43.7952,64.5861493 L43.7952,44.6260299 L50.8266667,44.6260299 L50.8266667,42.1839403 L43.7952,42.1839403 L43.7952,39.4877015 L50.8266667,39.4877015 L50.8266667,37.0493731 L43.7952,37.0493731 L43.7952,34.441791 L50.8266667,34.441791 L50.8266667,32.0034627 L43.7952,32.0034627 L43.7952,29.6597015 L50.8266667,29.6597015 L50.8266667,27.2192239 L43.7952,27.2192239 L43.7952,24.5251343 L50.8266667,24.5251343 L50.8266667,22.0830448 L43.7952,22.0830448 L43.7952,19.4776119 L50.8266667,19.4776119 L50.8266667,17.0392836 L43.7952,17.0392836 L43.7952,11.4265075 L53.3253333,11.4265075 L53.3253333,46.3164179 C49.5882667,46.9085373 46.8186667,50.1297313 46.8186667,53.9989254 Z" id="Shape"></path>
                                    </g>
                                </g>
                            </g>
                        </g>
                    </g>
                </g>
            </g>
        </g>
    </g>
</svg>