<svg id="Layer_1" data-name="Layer 1" xmlns="http://www.w3.org/2000/svg" viewBox="0 0 108 108"><defs><style>.cls-1{fill:#33373b;}</style></defs><title>memory_size</title><g id="Group"><path id="Shape" class="cls-1" d="M59.6,9H35V19.92H59.6V9Zm-22.15,8.5V11.43H57.18v6.06H37.45Z"/><path id="Shape-2" data-name="Shape" class="cls-1" d="M59.6,24.21H35V35.15H59.6V24.21Zm-22.15,8.5V26.65H57.18v6.06H37.45Z"/><path id="Shape-3" data-name="Shape" class="cls-1" d="M59.6,38.74H35V49.67H59.6V38.74Zm-22.15,8.5V41.17H57.18v6.06Z"/><path id="Shape-4" data-name="Shape" class="cls-1" d="M59.6,58.92H35V69.87H59.6V58.92Zm-22.15,8.5V61.36H57.18v6.06Z"/><path id="Shape-5" data-name="Shape" class="cls-1" d="M59.6,74.15H35V85.09H59.6V74.15Zm-22.15,8.5V76.59H57.18v6.07Z"/><path id="Shape-6" data-name="Shape" class="cls-1" d="M59.6,88.68H35V99.61H59.6V88.68Zm-22.15,8.5V91.12H57.18v6.06Z"/><path id="Shape-7" data-name="Shape" class="cls-1" d="M80.54,48.67h1.21V9h-12V0H30.65l.16,1.58a3.14,3.14,0,0,1-3.12,3.15l-1.45-.1v99.08l1.28-.07.15,0a3.14,3.14,0,0,1,3.12,3.15V108h39v-6.26h12V59.33H80.54a5.33,5.33,0,0,1,0-10.67ZM28.67,101.27V7.09a5.55,5.55,0,0,0,4.5-4.65H67.38V105.56H33.1A5.54,5.54,0,0,0,28.67,101.27ZM72.82,54a7.72,7.72,0,0,0,6.51,7.67V99.3H69.8V92.18h7V89.74h-7V87h7V84.6h-7V82h7V79.55h-7V77.21h7V74.77h-7v-2.7h7V69.63h-7V67h7V64.59h-7v-20h7V42.18h-7v-2.7h7V37h-7V34.44h7V32h-7V29.66h7V27.22h-7V24.53h7V22.08h-7V19.48h7V17h-7V11.43h9.53V46.32A7.73,7.73,0,0,0,72.82,54Z"/></g></svg>