<svg id="Layer_1" data-name="Layer 1" xmlns="http://www.w3.org/2000/svg" viewBox="0 0 12 12"><defs><style>.cls-1{fill:#fff;}</style></defs><title>settings</title><g id="Capa_1" data-name="Capa 1"><path id="Shape" class="cls-1" d="M11.28,5.28a1.49,1.49,0,0,1-.92-2.34l.45-.62-1-1-.61.41a1.49,1.49,0,0,1-2.3-1L6.81,0H5.42L5.24.93A1.49,1.49,0,0,1,3,1.88l-.79-.53-1,1,.45.62A1.49,1.49,0,0,1,.72,5.28L0,5.42V6.81l.76.12a1.49,1.49,0,0,1,1,2.3l-.41.61,1,1,.62-.45a1.49,1.49,0,0,1,2.34.92l.14.72H6.81l.08-.53a1.49,1.49,0,0,1,2.35-1l.43.32,1-1-.41-.61a1.49,1.49,0,0,1,1-2.3L12,6.81V5.42ZM6.12,7.15a1,1,0,1,1,1-1A1,1,0,0,1,6.12,7.15Z"/></g></svg>