<svg id="Layer_1" data-name="Layer 1" xmlns="http://www.w3.org/2000/svg" viewBox="0 0 105 105"><defs><style>.cls-1{fill:#33373b;}</style></defs><title>World</title><g id="Layer_1-2" data-name="Layer 1"><path id="World" class="cls-1" d="M52.5,0A52.5,52.5,0,1,0,105,52.5,52.5,52.5,0,0,0,52.5,0ZM98.28,34.45H84.67C82,20.73,76.29,12.11,71.78,7.22A49.49,49.49,0,0,1,98.28,34.45ZM82.89,50.15a92.08,92.08,0,0,1-1.53,17.11H54.14V37.73H82A81.13,81.13,0,0,1,82.89,50.15ZM64,100.36a49.07,49.07,0,0,1-9.82,1.32V70.55H80.68C75.88,91.11,64.9,99.66,64,100.36Zm-21.22,0s-4.8-3.4-9.49-11.23A64.51,64.51,0,0,1,26,70.55h24.9v31.13a49.19,49.19,0,0,1-7.72-.86A1.58,1.58,0,0,0,42.75,100.41Zm-19-50.25a90.79,90.79,0,0,1,.83-12.42H50.86V67.27H25.28A92.49,92.49,0,0,1,23.74,50.15ZM40.24,4.83a49.08,49.08,0,0,1,10.62-1.5V34.45H25.09C28.7,14.58,38.44,6.22,40.24,4.83Zm13.9,29.62V3.32A49.06,49.06,0,0,1,64,4.65h0c.16.09,12.94,8,17.39,29.8ZM33.37,7.15c-4,4.87-9.2,13.51-11.55,27.3H6.72A49.49,49.49,0,0,1,33.37,7.15ZM5.55,37.73H21.32a96.56,96.56,0,0,0-.77,12.42A97.6,97.6,0,0,0,22,67.27H5.55a49.24,49.24,0,0,1,0-29.53ZM6.72,70.55H22.65c3.26,14.85,9.62,23.86,13.92,28.51A49.45,49.45,0,0,1,6.72,70.55ZM70.9,98.14c4.26-4.87,10-13.66,13.1-27.59H98.28A49.47,49.47,0,0,1,70.9,98.14ZM99.45,67.27H84.64a97.58,97.58,0,0,0,1.45-17.11,86.28,86.28,0,0,0-.86-12.42H99.45a49.24,49.24,0,0,1,0,29.53Z"/></g></svg>